<svg width="653" height="99" viewBox="0 0 653 99" fill="none" xmlns="http://www.w3.org/2000/svg">
<path d="M83.0018 83C60.894 83 43.0078 65.1111 43.0078 43C43.0078 20.8889 60.894 3 83.0018 3C105.11 3 122.996 20.8889 122.996 43C122.996 65.1111 105.11 83 83.0018 83Z" stroke="#3D6D56" stroke-width="6" stroke-linecap="round" stroke-linejoin="round"/>
<path d="M83.0012 66.5L70.1699 80.8333C74.2248 82.2222 78.5575 82.9444 83.0567 82.9444C87.556 82.9444 91.8886 82.1667 95.9435 80.8333L83.0012 66.5Z" stroke="#3D6D56" stroke-width="6" stroke-linecap="round" stroke-linejoin="round"/>
<path d="M68.8262 46.9449V32.8338L75.9361 25.7227H90.045L97.1549 32.8338V46.9449L90.045 54.056H75.9361L68.8262 46.9449Z" stroke="#3D6D56" stroke-width="6" stroke-linecap="round" stroke-linejoin="round"/>
<path d="M82.8877 54.0547L82.9988 66.4991" stroke="#3D6D56" stroke-width="6" stroke-linecap="round" stroke-linejoin="round"/>
<path d="M106.777 49.0564L115.053 66.9453C117.608 63.5009 119.664 59.6675 121.052 55.3342C122.441 51.0564 123.052 46.7231 122.996 42.4453L106.777 49.0564Z" stroke="#3D6D56" stroke-width="6" stroke-linecap="round" stroke-linejoin="round"/>
<path d="M96.6685 47.4453L106.779 49.0564" stroke="#3D6D56" stroke-width="6" stroke-linecap="round" stroke-linejoin="round"/>
<path d="M98.5463 21.1662L115.655 19.8885C113.211 16.3885 110.156 13.2218 106.489 10.6107C102.823 7.94401 98.8796 6.05512 94.8247 4.77734L98.5463 21.1662Z" stroke="#3D6D56" stroke-width="6" stroke-linecap="round" stroke-linejoin="round"/>
<path d="M92.8872 28.553L98.5538 21.1641" stroke="#3D6D56" stroke-width="6" stroke-linecap="round" stroke-linejoin="round"/>
<path d="M67.8248 21.8915L71.1576 4.83594C67.1027 6.11372 63.1589 8.05816 59.4928 10.6693C55.8267 13.3359 52.7717 16.447 50.3276 19.947L67.8248 21.8915Z" stroke="#3D6D56" stroke-width="6" stroke-linecap="round" stroke-linejoin="round"/>
<path d="M72.5488 28.5573L67.8267 21.8906" stroke="#3D6D56" stroke-width="6" stroke-linecap="round" stroke-linejoin="round"/>
<path d="M59.2231 49.3342L43.0035 42.4453C42.9479 46.7231 43.5589 51.0564 44.9476 55.3342C46.3363 59.612 48.3915 63.5009 50.9466 66.9453L59.2231 49.3342Z" stroke="#3D6D56" stroke-width="6" stroke-linecap="round" stroke-linejoin="round"/>
<path d="M69.3279 47.4453L59.2178 49.3342" stroke="#3D6D56" stroke-width="6" stroke-linecap="round" stroke-linejoin="round"/>
<path d="M18 43H3" stroke="#3D6D56" stroke-width="6" stroke-linecap="round"/>
<path d="M33 13H18" stroke="#3D6D56" stroke-width="6" stroke-linecap="round"/>
<path d="M33 73H18" stroke="#3D6D56" stroke-width="6" stroke-linecap="round"/>
<path d="M26 28H11" stroke="#3D6D56" stroke-width="6" stroke-linecap="round"/>
<path d="M26 58H11" stroke="#3D6D56" stroke-width="6" stroke-linecap="round"/>
<path d="M162.2 78V9.2H206V18.8H173.5V40.1H202.3V49.7H173.5V78H162.2ZM229.759 78.8C226.293 78.8 223.359 78.3333 220.959 77.4C218.626 76.4667 216.859 74.9333 215.659 72.8C214.459 70.6 213.859 67.6333 213.859 63.9C213.859 59.9667 214.326 56.8667 215.259 54.6C216.193 52.2667 217.793 50.6 220.059 49.6C222.326 48.6 225.526 48.1 229.659 48.1C230.326 48.1 231.293 48.1333 232.559 48.2C233.893 48.2 235.393 48.2333 237.059 48.3C238.793 48.3 240.493 48.3333 242.159 48.4C243.893 48.4 245.459 48.4333 246.859 48.5V46.1C246.859 43.5 246.693 41.4667 246.359 40C246.026 38.5333 245.326 37.4667 244.259 36.8C243.259 36.0667 241.793 35.6 239.859 35.4C237.926 35.2 235.426 35.1 232.359 35.1C230.893 35.1 229.159 35.1667 227.159 35.3C225.226 35.3667 223.326 35.4667 221.459 35.6C219.593 35.7333 218.159 35.9 217.159 36.1V27.7C219.893 27.1667 222.893 26.8 226.159 26.6C229.426 26.3333 232.693 26.2 235.959 26.2C239.759 26.2 242.926 26.4333 245.459 26.9C248.059 27.3667 250.159 28.1 251.759 29.1C253.359 30.1 254.559 31.4 255.359 33C256.159 34.6 256.726 36.5333 257.059 38.8C257.393 41 257.559 43.5333 257.559 46.4V78H247.759L247.359 71.4H246.759C245.626 73.5333 244.093 75.1667 242.159 76.3C240.293 77.3667 238.259 78.0333 236.059 78.3C233.859 78.6333 231.759 78.8 229.759 78.8ZM234.459 70.2C236.126 70.2 237.626 70.1 238.959 69.9C240.359 69.6333 241.559 69.2333 242.559 68.7C243.626 68.1 244.459 67.3 245.059 66.3C245.659 65.1667 246.093 63.8667 246.359 62.4C246.693 60.9333 246.859 59.2 246.859 57.2V55.4H232.259C230.059 55.4 228.359 55.5667 227.159 55.9C226.026 56.2333 225.259 56.9333 224.859 58C224.459 59.0667 224.259 60.7 224.259 62.9C224.259 64.9667 224.493 66.5333 224.959 67.6C225.426 68.6 226.393 69.3 227.859 69.7C229.393 70.0333 231.593 70.2 234.459 70.2ZM291.2 78.8C289.2 78.8 287.033 78.7333 284.7 78.6C282.433 78.4667 280.2 78.3 278 78.1C275.8 77.9 273.833 77.6667 272.1 77.4V69C273.233 69.0667 274.5 69.1667 275.9 69.3C277.367 69.4333 278.9 69.5333 280.5 69.6C282.1 69.6667 283.667 69.7333 285.2 69.8C286.733 69.8667 288.233 69.9 289.7 69.9C292.9 69.9 295.2 69.7 296.6 69.3C298.067 68.9 299 68.2333 299.4 67.3C299.867 66.3 300.1 65.0333 300.1 63.5C300.1 61.7667 299.933 60.5 299.6 59.7C299.333 58.9 298.8 58.3667 298 58.1C297.2 57.8333 295.967 57.6 294.3 57.4L281.9 55.9C278.7 55.5667 276.267 54.8333 274.6 53.7C273 52.5 271.9 50.9 271.3 48.9C270.767 46.8333 270.5 44.3333 270.5 41.4C270.5 38 270.967 35.3 271.9 33.3C272.9 31.2333 274.267 29.7 276 28.7C277.8 27.7 279.967 27.0333 282.5 26.7C285.033 26.3667 287.8 26.2 290.8 26.2C292.667 26.2 294.6 26.2667 296.6 26.4C298.667 26.5333 300.633 26.7333 302.5 27C304.433 27.2 306.1 27.4333 307.5 27.7V36.1C305.9 35.9 304.167 35.7333 302.3 35.6C300.433 35.4667 298.567 35.3667 296.7 35.3C294.9 35.1667 293.167 35.1 291.5 35.1C289.033 35.1 287 35.2333 285.4 35.5C283.8 35.7 282.6 36.2333 281.8 37.1C281.067 37.9 280.7 39.3 280.7 41.3C280.7 42.8333 280.8 44 281 44.8C281.267 45.5333 281.767 46.0667 282.5 46.4C283.3 46.6667 284.5 46.9 286.1 47.1L299.5 48.7C302.033 48.9667 304.067 49.5 305.6 50.3C307.2 51.0333 308.367 52.4 309.1 54.4C309.9 56.3333 310.3 59.3 310.3 63.3C310.3 66.6333 309.867 69.3333 309 71.4C308.2 73.4 306.967 74.9667 305.3 76.1C303.633 77.1667 301.6 77.8667 299.2 78.2C296.867 78.6 294.2 78.8 291.2 78.8ZM327.316 78V35.9H317.116V27H327.316V12.2H337.916V27H349.816V35.9H337.916V78H327.316ZM361.419 78V9.2H394.119C398.652 9.2 402.285 9.9 405.019 11.3C407.752 12.6333 409.752 14.6 411.019 17.2C412.285 19.7333 412.919 22.8333 412.919 26.5C412.919 29.5667 412.485 32.2 411.619 34.4C410.819 36.6 409.552 38.4 407.819 39.8C406.085 41.1333 403.852 42.1 401.119 42.7V43.1C404.319 43.7 406.819 44.7333 408.619 46.2C410.485 47.6667 411.785 49.5333 412.519 51.8C413.252 54.0667 413.619 56.7333 413.619 59.8C413.619 62.4 413.319 64.8333 412.719 67.1C412.119 69.3 411.085 71.2 409.619 72.8C408.219 74.4 406.252 75.6667 403.719 76.6C401.185 77.5333 397.952 78 394.019 78H361.419ZM372.719 68.5H390.619C393.685 68.5 396.052 68.2 397.719 67.6C399.385 66.9333 400.552 65.8667 401.219 64.4C401.952 62.8667 402.319 60.8333 402.319 58.3C402.319 55.7 401.952 53.6667 401.219 52.2C400.485 50.6667 399.252 49.6 397.519 49C395.852 48.3333 393.552 48 390.619 48H372.719V68.5ZM372.719 38.4H390.219C392.952 38.4 395.119 38.0667 396.719 37.4C398.385 36.7333 399.619 35.7 400.419 34.3C401.219 32.8333 401.619 30.9667 401.619 28.7C401.619 26.1667 401.285 24.2 400.619 22.8C399.952 21.3333 398.819 20.3 397.219 19.7C395.619 19.1 393.285 18.8 390.219 18.8H372.719V38.4ZM444.69 78.8C441.157 78.8 438.257 78.4 435.99 77.6C433.79 76.7333 432.09 75.4667 430.89 73.8C429.757 72.1333 428.99 70.0667 428.59 67.6C428.19 65.1333 427.99 62.2333 427.99 58.9V27H438.59V54.7C438.59 58.0333 438.69 60.7 438.89 62.7C439.157 64.6333 439.657 66.1 440.39 67.1C441.123 68.0333 442.19 68.6333 443.59 68.9C445.057 69.1667 446.99 69.3 449.39 69.3C452.057 69.3 454.19 68.9667 455.79 68.3C457.39 67.6333 458.557 66.6333 459.29 65.3C460.09 63.9667 460.59 62.3 460.79 60.3C460.99 58.3 461.09 55.9667 461.09 53.3V27H471.79V78H461.99L461.59 71.2H460.89C460.157 72.8 459.09 74.1667 457.69 75.3C456.357 76.4333 454.623 77.3 452.49 77.9C450.357 78.5 447.757 78.8 444.69 78.8ZM507.76 98.6C505.827 98.6 503.793 98.5333 501.66 98.4C499.593 98.3333 497.593 98.2333 495.66 98.1C493.793 97.9667 492.127 97.8 490.66 97.6V89.3C493.06 89.3667 495.127 89.4333 496.86 89.5C498.66 89.5667 500.26 89.6 501.66 89.6C503.06 89.6667 504.293 89.7 505.36 89.7C508.96 89.7 511.793 89.4667 513.86 89C515.927 88.5333 517.46 87.7333 518.46 86.6C519.46 85.4667 520.06 83.9 520.26 81.9C520.527 79.9667 520.66 77.5 520.66 74.5V71.4H520.06C519.393 72.8667 518.393 74.1333 517.06 75.2C515.793 76.2 514.093 77 511.96 77.6C509.893 78.1333 507.327 78.4 504.26 78.4C500.727 78.4 497.827 78 495.56 77.2C493.36 76.3333 491.66 75.1 490.46 73.5C489.327 71.8333 488.56 69.7667 488.16 67.3C487.76 64.8333 487.56 61.9667 487.56 58.7V27H498.16V54.5C498.16 57.8333 498.26 60.5 498.46 62.5C498.727 64.4333 499.227 65.8667 499.96 66.8C500.693 67.7333 501.76 68.3667 503.16 68.7C504.627 68.9667 506.56 69.1 508.96 69.1C511.627 69.1 513.76 68.7667 515.36 68.1C516.96 67.4333 518.127 66.4333 518.86 65.1C519.66 63.7667 520.16 62.1 520.36 60.1C520.56 58.1 520.66 55.7667 520.66 53.1V27H531.36V72C531.36 76.7333 531.093 80.7667 530.56 84.1C530.093 87.5 529.06 90.2667 527.46 92.4C525.927 94.5333 523.593 96.1 520.46 97.1C517.327 98.1 513.093 98.6 507.76 98.6Z" fill="#3D6D56"/>
</svg>
