<svg width="55" height="55" viewBox="0 0 55 55" fill="none" xmlns="http://www.w3.org/2000/svg">
<path d="M22.2092 32.725C22.2092 31.6917 22.3425 30.7583 22.6092 29.925C22.8758 29.0917 23.3258 28.2917 23.9592 27.525C24.5925 26.7583 25.4758 25.9917 26.6092 25.225C27.5425 24.5583 28.2592 23.975 28.7592 23.475C29.2925 22.975 29.6425 22.475 29.8092 21.975C30.0092 21.4417 30.1092 20.8583 30.1092 20.225C30.1092 19.2917 29.8092 18.5917 29.2092 18.125C28.6092 17.625 27.8258 17.375 26.8592 17.375C25.7258 17.375 24.4758 17.5917 23.1092 18.025C21.7758 18.4583 20.3592 19.075 18.8592 19.875L15.6592 13.925C17.3592 12.925 19.1925 12.1417 21.1592 11.575C23.1258 10.975 25.2592 10.675 27.5592 10.675C31.0258 10.675 33.7092 11.5083 35.6092 13.175C37.5425 14.8083 38.5092 16.925 38.5092 19.525C38.5092 20.8583 38.3092 22.0417 37.9092 23.075C37.5425 24.075 36.9592 25.025 36.1592 25.925C35.3925 26.825 34.3592 27.725 33.0592 28.625C32.2258 29.2917 31.5592 29.8583 31.0592 30.325C30.5592 30.7917 30.2092 31.2583 30.0092 31.725C29.8425 32.1583 29.7592 32.6917 29.7592 33.325V34.675H22.2092V32.725ZM21.4092 43.125C21.4092 41.4917 21.8758 40.3583 22.8092 39.725C23.7758 39.0583 24.9258 38.725 26.2592 38.725C27.5592 38.725 28.6758 39.0583 29.6092 39.725C30.5425 40.3583 31.0092 41.4917 31.0092 43.125C31.0092 44.6583 30.5425 45.775 29.6092 46.475C28.6758 47.175 27.5592 47.525 26.2592 47.525C24.9258 47.525 23.7758 47.175 22.8092 46.475C21.8758 45.775 21.4092 44.6583 21.4092 43.125Z" fill="#363636"/>
</svg>
